<?xml version="1.0" encoding="utf-8"?>
<!-- Generator: Adobe Illustrator 23.0.3, SVG Export Plug-In . SVG Version: 6.00 Build 0)  -->
<svg version="1.1" id="Layer_1" xmlns="http://www.w3.org/2000/svg" xmlns:xlink="http://www.w3.org/1999/xlink" x="0px" y="0px"
	 viewBox="0 0 150 150" style="enable-background:new 0 0 150 150;" xml:space="preserve">
<style type="text/css">
	.st0{fill:#2DABE2;}
	.st1{fill:#ED118A;}
	.st2{opacity:0.9;fill:#322F82;}
	.st3{opacity:0.9;}
	.st4{fill:#322F82;}
</style>
<g>
	<path class="st0" d="M69.5,135.8c-17.7,0-34.4-6.9-47-19.5S3.1,87.2,3.1,69.4c0-17.7,6.9-34.4,19.5-47S51.8,3,69.5,3
		s34.4,6.9,47,19.5s19.5,29.2,19.5,47c0,17.7-6.9,34.4-19.5,47C103.9,128.9,87.3,135.8,69.5,135.8z M69.5,9
		C36.2,9,9.1,36.1,9.1,69.4s27.1,60.5,60.5,60.5c33.3,0,60.5-27.1,60.5-60.5S102.9,9,69.5,9z"/>
	<path class="st1" d="M80.5,133.2c-17.7,0-34.4-6.9-47-19.5c-12.5-12.5-19.5-29.2-19.5-47c0-17.7,6.9-34.4,19.5-47
		s29.2-19.5,47-19.5c17.7,0,34.4,6.9,47,19.5c12.5,12.5,19.5,29.2,19.5,47c0,17.7-6.9,34.4-19.5,47
		C114.9,126.3,98.2,133.2,80.5,133.2z M80.5,6.3C47.1,6.3,20,33.4,20,66.8c0,33.3,27.1,60.5,60.5,60.5s60.5-27.1,60.5-60.5
		C140.9,33.4,113.8,6.3,80.5,6.3z"/>
	<path class="st2" d="M71.5,149.6c-17.7,0-34.4-6.9-47-19.5C12,117.6,5.1,101,5.1,83.2c0-17.7,6.9-34.4,19.5-47s29.2-19.5,47-19.5
		s34.4,6.9,47,19.5C131,48.8,138,65.5,138,83.2c0,17.7-6.9,34.4-19.5,47C106,142.7,89.3,149.6,71.5,149.6z M71.5,22.8
		c-33.3,0-60.5,27.1-60.5,60.5s27.1,60.5,60.5,60.5c33.3,0,60.5-27.1,60.5-60.5S104.9,22.8,71.5,22.8z"/>
</g>
<g class="st3">
	<path class="st4" d="M75,58.7c-9,0-16.3,7.3-16.3,16.3c0,9,7.3,16.3,16.3,16.3c9,0,16.3-7.3,16.3-16.3C91.3,66,84,58.7,75,58.7
		L75,58.7z M75,85.6c-5.8,0-10.6-4.7-10.6-10.6c0-5.8,4.7-10.6,10.6-10.6c5.8,0,10.6,4.7,10.6,10.6C85.6,80.8,80.9,85.6,75,85.6z"/>
	<path class="st4" d="M88.1,43.5c-5.8-0.3-20.3-0.3-26.2,0c-5.1,0.2-9.7,1.5-13.3,5.1c-6.1,6.1-5.3,14.3-5.3,26.4
		c0,12.3-0.7,20.4,5.3,26.4c6.1,6.1,14.5,5.3,26.4,5.3c12.2,0,16.5,0,20.8-1.7c5.9-2.3,10.3-7.5,10.8-17c0.3-5.8,0.3-20.3,0-26.2
		C106,50.8,100,44,88.1,43.5L88.1,43.5z M97.3,97.3c-4,4-9.6,3.6-22.4,3.6c-13.2,0-18.5,0.2-22.4-3.7c-4.5-4.4-3.7-11.6-3.7-22.4
		c0-14.6-1.5-25.1,13.2-25.9c3.4-0.1,4.4-0.2,12.8-0.2L75,49c14.1,0,25.2-1.5,25.8,13.2c0.2,3.3,0.2,4.4,0.2,12.8
		C101,88.1,101.3,93.4,97.3,97.3L97.3,97.3z"/>
	<circle class="st4" cx="91.9" cy="58.1" r="3.8"/>
</g>
</svg>
