<?xml version="1.0" encoding="utf-8"?>
<!-- Generator: Adobe Illustrator 23.0.3, SVG Export Plug-In . SVG Version: 6.00 Build 0)  -->
<svg version="1.1" id="Layer_1" xmlns="http://www.w3.org/2000/svg" xmlns:xlink="http://www.w3.org/1999/xlink" x="0px" y="0px"
	 viewBox="0 0 150 150" style="enable-background:new 0 0 150 150;" xml:space="preserve">
<style type="text/css">
	.st0{fill:#2DABE2;}
	.st1{fill:#ED118A;}
	.st2{opacity:0.9;fill:#322F82;}
	.st3{opacity:0.9;}
	.st4{fill:#322F82;}
</style>
<g>
	<path class="st0" d="M69.5,135.8c-17.7,0-34.4-6.9-47-19.5S3.1,87.2,3.1,69.4c0-17.7,6.9-34.4,19.5-47S51.8,3,69.5,3
		s34.4,6.9,47,19.5s19.5,29.2,19.5,47c0,17.7-6.9,34.4-19.5,47C103.9,128.9,87.3,135.8,69.5,135.8z M69.5,9
		C36.2,9,9.1,36.1,9.1,69.4s27.1,60.5,60.5,60.5c33.3,0,60.5-27.1,60.5-60.5S102.9,9,69.5,9z"/>
	<path class="st1" d="M80.5,133.2c-17.7,0-34.4-6.9-47-19.5c-12.5-12.5-19.5-29.2-19.5-47c0-17.7,6.9-34.4,19.5-47
		s29.2-19.5,47-19.5c17.7,0,34.4,6.9,47,19.5c12.5,12.5,19.5,29.2,19.5,47c0,17.7-6.9,34.4-19.5,47
		C114.9,126.3,98.2,133.2,80.5,133.2z M80.5,6.3C47.1,6.3,20,33.4,20,66.8c0,33.3,27.1,60.5,60.5,60.5s60.5-27.1,60.5-60.5
		C140.9,33.4,113.8,6.3,80.5,6.3z"/>
	<path class="st2" d="M71.5,149.6c-17.7,0-34.4-6.9-47-19.5C12,117.6,5.1,101,5.1,83.2c0-17.7,6.9-34.4,19.5-47s29.2-19.5,47-19.5
		s34.4,6.9,47,19.5C131,48.8,138,65.5,138,83.2c0,17.7-6.9,34.4-19.5,47C106,142.7,89.3,149.6,71.5,149.6z M71.5,22.8
		c-33.3,0-60.5,27.1-60.5,60.5s27.1,60.5,60.5,60.5c33.3,0,60.5-27.1,60.5-60.5S104.9,22.8,71.5,22.8z"/>
</g>
<path class="st2" d="M106.2,55.7c-2.3,1-4.8,1.7-7.4,2c2.6-1.6,4.7-4.1,5.6-7.1c-2.5,1.5-5.2,2.5-8.1,3.1c-2.3-2.5-5.7-4-9.3-4
	c-7.1,0-12.8,5.7-12.8,12.8c0,1,0.1,2,0.3,2.9c-10.6-0.5-20-5.6-26.3-13.4c-1.1,1.9-1.7,4.1-1.7,6.5c0,4.4,2.3,8.3,5.7,10.6
	c-2.1,0-4.1-0.6-5.8-1.6c0,0,0,0.1,0,0.1c0,6.2,4.4,11.4,10.2,12.6c-1,0.3-2.2,0.4-3.3,0.4c-0.8,0-1.6,0-2.4-0.2
	c1.7,5.1,6.4,8.8,11.9,8.9c-4.3,3.4-9.9,5.4-15.8,5.4c-1,0-2.1,0-3.1-0.2c5.7,3.6,12.4,5.7,19.6,5.7c23.5,0,36.4-19.5,36.4-36.4
	c0-0.6,0-1.1,0-1.7C102.3,60.5,104.4,58.3,106.2,55.7z"/>
</svg>
