<svg xmlns="http://www.w3.org/2000/svg" version="1.1" xmlns:xlink="http://www.w3.org/1999/xlink" xmlns:svgjs="http://svgjs.dev/svgjs" width="2000" height="1247" viewBox="0 0 2000 1247"><g transform="matrix(1,0,0,1,-1.2121212121212466,0.504858299595071)"><svg viewBox="0 0 396 247" data-background-color="#636365" preserveAspectRatio="xMidYMid meet" height="1247" width="2000" xmlns="http://www.w3.org/2000/svg" xmlns:xlink="http://www.w3.org/1999/xlink"><g id="tight-bounds" transform="matrix(1,0,0,1,0.2400000000000091,-0.09999999999999432)"><svg viewBox="0 0 395.52 247.2" height="247.2" width="395.52"><g><svg></svg></g><g><svg viewBox="0 0 395.52 247.2" height="247.2" width="395.52"><g><path d="M55.039 247.2l77.943-135.001v4.041l-74.379 128.829h278.314l-74.379-128.829v-4.041l77.943 135.001zM197.76 0l26.403 45.732-2.333 0-24.07-41.691-24.07 41.691-2.333 0z" fill="#ffffff" fill-rule="nonzero" stroke="none" stroke-width="1" stroke-linecap="butt" stroke-linejoin="miter" stroke-miterlimit="10" stroke-dasharray="" stroke-dashoffset="0" font-family="none" font-weight="none" font-size="none" text-anchor="none" style="mix-blend-mode: normal" data-fill-palette-color="tertiary"></path></g><g transform="matrix(1,0,0,1,155.22985879332475,67.97999999999999)"><svg viewBox="0 0 85.06028241335045 111.24" height="111.24" width="85.06028241335045"><g><svg viewBox="0 0 85.06028241335045 111.24" height="111.24" width="85.06028241335045"><g><svg viewBox="0 0 85.06028241335045 111.24" height="111.24" width="85.06028241335045"><g><svg viewBox="0 0 85.06028241335045 111.24" height="111.24" width="85.06028241335045"><g><svg viewBox="0 0 85.06028241335045 111.24" height="111.24" width="85.06028241335045"><g transform="matrix(1,0,0,1,0,0)"><svg width="85.06028241335045" viewBox="1.4500000000000002 -35.05 91.85 113.45" height="111.24" data-palette-color="#ffffff"><svg></svg><svg></svg><svg></svg><g class="undefined-text-0" data-fill-palette-color="primary" id="text-0"><path d="M21.95 0l-12.4-19.15-4 5.35v13.8h-1.6v-35.05h1.6v18.6l13.8-18.6h1.85l-10.65 14.5 13.25 20.55zM48 0l-4.55-13.4h-12.7l-4.6 13.4h-1.65l11.9-35h1.35l12 35zM37.05-32.2l-5.8 17.2h11.7zM54.15 0v-35h16.7v1.6h-15.05v12.75h9.7l-0.65 1.6h-9.05v19.05zM76.6 0v-35h16.7v1.55h-15.1v12.8h10.75l-0.55 1.6h-10.2v17.55h15v1.5z" fill="#ffffff" fill-rule="nonzero" stroke="none" stroke-width="1" stroke-linecap="butt" stroke-linejoin="miter" stroke-miterlimit="10" stroke-dasharray="" stroke-dashoffset="0" font-family="none" font-weight="none" font-size="none" text-anchor="none" style="mix-blend-mode: normal" data-fill-palette-color="primary" opacity="1"></path><path d="M5.45 38.95v-33.4l-4-0.1v-1.5h5.6v35z" fill="#ffffff" fill-rule="nonzero" stroke="none" stroke-width="1" stroke-linecap="butt" stroke-linejoin="miter" stroke-miterlimit="10" stroke-dasharray="" stroke-dashoffset="0" font-family="none" font-weight="none" font-size="none" text-anchor="none" style="mix-blend-mode: normal" data-fill-palette-color="primary" opacity="1"></path><path d="M22.45 77.9l-0.25-3.6c-1.533 2.733-4.333 4.1-8.4 4.1v0c-1.867 0-3.6-0.35-5.2-1.05-1.6-0.7-2.89-1.8-3.87-3.3-0.987-1.5-1.48-3.367-1.48-5.6v0-15.7c0-2.333 0.377-4.21 1.13-5.63 0.747-1.413 1.82-2.553 3.22-3.42v0c1.467-0.833 3.267-1.25 5.4-1.25v0c2.6 0 4.95 0.55 7.05 1.65v0l-0.5 1.2c-2.333-0.933-4.383-1.4-6.15-1.4v0c-2.233 0-4.217 0.617-5.95 1.85-1.733 1.233-2.6 3.583-2.6 7.05v0 15.75c0 2.5 0.817 4.507 2.45 6.02 1.633 1.52 3.8 2.28 6.5 2.28v0c2.867 0 4.993-0.777 6.38-2.33 1.38-1.547 2.07-3.47 2.07-5.77v0-4.25h-4.75l-0.6-1.6h6.9v15zM32.3 77.9v-33.4l-4-0.1v-1.5h5.6v35zM63.55 77.9l-21.5-32.2v32.2h-1.55v-35h1.55l21.5 32.15v-32.15h1.55v35z" fill="#ffffff" fill-rule="nonzero" stroke="none" stroke-width="1" stroke-linecap="butt" stroke-linejoin="miter" stroke-miterlimit="10" stroke-dasharray="" stroke-dashoffset="0" font-family="none" font-weight="none" font-size="none" text-anchor="none" style="mix-blend-mode: normal" data-fill-palette-color="primary" opacity="1"></path></g></svg></g></svg></g></svg></g></svg></g></svg></g></svg></g></svg></g><defs></defs></svg><rect width="395.52" height="247.2" fill="none" stroke="none" visibility="hidden"></rect></g></svg></g></svg>