<svg xmlns="http://www.w3.org/2000/svg" version="1.1" xmlns:xlink="http://www.w3.org/1999/xlink" xmlns:svgjs="http://svgjs.dev/svgjs" width="2000" height="1250" viewBox="0 0 2000 1250"><g transform="matrix(1,0,0,1,0,0)"><svg viewBox="0 0 512 320" data-background-color="#636365" preserveAspectRatio="xMidYMid meet" height="1250" width="2000" xmlns="http://www.w3.org/2000/svg" xmlns:xlink="http://www.w3.org/1999/xlink"><defs></defs><g id="tight-bounds" transform="matrix(1,0,0,1,0,0)"><svg viewBox="0 0 512 320" height="320" width="512"><g><svg></svg></g><g><svg viewBox="0 0 512 320" height="320" width="512"><g><path d="M96 320l0-320 320 0 0 320zM411.568 315.568l0-311.136-311.136 0 0 311.136z" fill="#ffffff" data-fill-palette-color="tertiary"></path></g><g transform="matrix(1,0,0,1,195.17211328976035,80)"><svg viewBox="0 0 121.6557734204793 160" height="160" width="121.6557734204793"><g><svg viewBox="0 0 121.6557734204793 160" height="160" width="121.6557734204793"><g><svg viewBox="0 0 121.6557734204793 160" height="160" width="121.6557734204793"><g><svg viewBox="0 0 121.6557734204793 160" height="160" width="121.6557734204793"><g><svg viewBox="0 0 121.6557734204793 160" height="160" width="121.6557734204793"><g transform="matrix(1,0,0,1,0,0)"><svg width="121.6557734204793" viewBox="3.0999960899353027 -34.20000076293945 89.25 111.25" height="160" data-palette-color="#ffffff"><svg></svg><svg></svg><svg></svg><g class="undefined-text-0" data-fill-palette-color="primary" id="text-0"><path d="M5.1-34.2h2.35v34.2h-2.35zM20.8-34.2h2.6l-13.1 15.75 13.9 18.45h-2.75l-13.85-18.35zM49.05 0h-2.4l-2.8-9.65h-13.3l-2.85 9.65h-2.25l10.35-34.2h2.9zM37.2-32.3l-6.05 20.65h12.1zM57.55 0h-2.35v-34.2h15.15l-0.3 2.05h-12.5v13.95h10.8v2h-10.8zM76.7-34.2h15.4l-0.3 2.05h-12.75v13.3h11.05v2h-11.05v14.85h13.3v2h-15.65z" data-fill-palette-color="primary" fill="#ffffff" opacity="1"></path><path d="M5.1 4.05h2.35v34.2h-2.35z" data-fill-palette-color="primary" fill="#ffffff" opacity="1"></path><path d="M15.9 41.8c1.667 0 3.127 0.257 4.38 0.77 1.247 0.52 2.52 1.347 3.82 2.48v0l-1.35 1.45c-1.1-0.933-2.183-1.607-3.25-2.02-1.067-0.42-2.267-0.63-3.6-0.63v0c-1.833 0-3.533 0.5-5.1 1.5-1.567 1-2.833 2.65-3.8 4.95-0.967 2.3-1.45 5.283-1.45 8.95v0c0 5.367 0.9 9.333 2.7 11.9 1.8 2.567 4.317 3.85 7.55 3.85v0c1.3 0 2.477-0.15 3.53-0.45 1.047-0.3 2.07-0.767 3.07-1.4v0-12.85h-6.15l-0.25-2.05h8.7v16.05c-2.767 1.833-5.717 2.75-8.85 2.75v0c-3.967 0-7.083-1.483-9.35-4.45-2.267-2.967-3.4-7.417-3.4-13.35v0c0-3.9 0.593-7.16 1.78-9.78 1.18-2.613 2.747-4.547 4.7-5.8 1.947-1.247 4.053-1.87 6.32-1.87zM32.85 42.3h2.35v34.2h-2.35zM65.35 42.3v34.2h-3.05l-15-31.55c0.2 2.867 0.3 6.567 0.3 11.1v0 20.45h-2.2v-34.2h3l15.05 31.6c-0.233-3.967-0.35-7.3-0.35-10v0-21.6z" data-fill-palette-color="primary" fill="#ffffff" opacity="1"></path></g></svg></g></svg></g></svg></g></svg></g></svg></g></svg></g></svg></g></svg><rect width="512" height="320" fill="none" stroke="none" visibility="hidden"></rect></g></svg></g></svg>