<svg xmlns="http://www.w3.org/2000/svg" version="1.1" xmlns:xlink="http://www.w3.org/1999/xlink" xmlns:svgjs="http://svgjs.dev/svgjs" width="2000" height="1250" viewBox="0 0 2000 1250"><g transform="matrix(1,0,0,1,0,0)"><svg viewBox="0 0 512 320" data-background-color="#ffffff" preserveAspectRatio="xMidYMid meet" height="1250" width="2000" xmlns="http://www.w3.org/2000/svg" xmlns:xlink="http://www.w3.org/1999/xlink"><defs></defs><g id="tight-bounds" transform="matrix(1,0,0,1,0,0)"><svg viewBox="0 0 512 320" height="320" width="512"><g><svg></svg></g><g><svg viewBox="0 0 512 320" height="320" width="512"><g><path d="M96 320l0-320 320 0 0 320zM411.561 315.561l0-311.122-311.122 0 0 311.122z" fill="#ffffff" data-fill-palette-color="tertiary"></path></g><g transform="matrix(1,0,0,1,195.06718014548568,80)"><svg viewBox="0 0 121.86563970902866 160" height="160" width="121.86563970902866"><g><svg viewBox="0 0 121.86563970902866 160" height="160" width="121.86563970902866"><g><svg viewBox="0 0 121.86563970902866 160" height="160" width="121.86563970902866"><g><svg viewBox="0 0 121.86563970902866 160" height="160" width="121.86563970902866"><g><svg viewBox="0 0 121.86563970902866 160" height="160" width="121.86563970902866"><g transform="matrix(1,0,0,1,0,0)"><svg width="121.86563970902866" viewBox="3.249999523162842 -35.04999923706055 89.69999694824219 113.45000457763672" height="160" data-palette-color="#000000"><svg></svg><svg></svg><svg></svg><g class="undefined-text-0" data-fill-palette-color="primary" id="text-0"><path d="M20.45 0l-11.3-17.25-2.4 3.8v13.45h-2.8v-35.05h2.8v16.7l11.2-16.7h3.25l-10.25 15.15 12.85 19.9zM46.6 0l-4-12.25h-11.4l-3.9 12.25h-2.95l11.2-35h2.65l11.4 35zM36.85-30.65l-4.85 15.65h9.85zM54 0v-35h16.7v2.65h-13.9v11.7h8.55l-1.15 2.75h-7.4v17.9zM76.25 0v-35h16.7v2.6h-13.9v11.75h9.55l-0.95 2.75h-8.6v15.4h13.8v2.5z" data-fill-palette-color="primary" fill="#ffffff" opacity="1"></path><path d="M6.65 38.95v-32.45l-3.35-0.1v-2.45h6.15v35z" data-fill-palette-color="primary" fill="#ffffff" opacity="1"></path><path d="M21.75 77.9l-0.7-2.05c-1.733 1.7-4.15 2.55-7.25 2.55v0c-1.867 0-3.6-0.35-5.2-1.05-1.6-0.7-2.89-1.8-3.87-3.3-0.987-1.5-1.48-3.367-1.48-5.6v0-15.7c0-2.333 0.377-4.21 1.13-5.63 0.747-1.413 1.82-2.553 3.22-3.42v0c1.467-0.833 3.267-1.25 5.4-1.25v0c2.6 0 4.95 0.55 7.05 1.65v0l-0.8 1.9c-1.9-0.7-3.7-1.05-5.4-1.05v0c-2.033 0-3.84 0.5-5.42 1.5-1.587 1-2.38 2.95-2.38 5.85v0 16.25c0 2.233 0.723 3.983 2.17 5.25 1.453 1.267 3.297 1.9 5.53 1.9v0c2.267 0 4.067-0.65 5.4-1.95 1.333-1.3 2-3.017 2-5.15v0-2.95h-3.3l-0.95-2.75h6.9v15zM33.5 77.9v-32.45l-3.35-0.1v-2.45h6.15v35zM65.75 77.9l-19-29.85v29.85h-2.8v-35h2.8l19 29.85v-29.85h2.8v35z" data-fill-palette-color="primary" fill="#ffffff" opacity="1"></path></g></svg></g></svg></g></svg></g></svg></g></svg></g></svg></g></svg></g></svg><rect width="512" height="320" fill="none" stroke="none" visibility="hidden"></rect></g></svg></g></svg>